<svg xmlns="http://www.w3.org/2000/svg" width="60" height="30" viewBox="0 0 60 30"><rect width="100%" height="100%" fill="#DDDDDD"/><path fill="#999999" d="m16.515 11.025-2.36 2.88-.28.35q.23-.12.5-.18.27-.07.58-.07.45 0 .87.15.43.15.75.45.33.3.53.75.19.44.19 1.04 0 .55-.2 1.04-.2.48-.57.85-.37.36-.89.57t-1.15.21-1.14-.21q-.51-.2-.86-.56-.36-.37-.55-.88-.19-.52-.19-1.15 0-.56.23-1.15t.7-1.23l1.9-2.54q.1-.14.29-.23t.44-.09zm-2.05 6.93q.32 0 .59-.11.28-.11.47-.31.2-.2.31-.47.11-.26.11-.58 0-.34-.11-.61-.1-.27-.3-.46-.19-.19-.46-.29t-.59-.1q-.33 0-.59.11t-.45.31q-.19.19-.29.46-.11.27-.11.57 0 .33.09.61.09.27.27.46t.45.3q.26.11.61.11m9.3-2.96q0 1.04-.22 1.81t-.62 1.27q-.39.5-.93.74-.53.25-1.15.25-.63 0-1.16-.25-.53-.24-.92-.74t-.61-1.27-.22-1.81.22-1.81q.22-.76.61-1.26t.92-.75q.53-.24 1.16-.24.62 0 1.15.24.54.25.93.75.4.5.62 1.26.22.77.22 1.81m-1.4 0q0-.86-.13-1.43-.12-.56-.34-.9-.21-.33-.48-.47-.28-.13-.57-.13-.3 0-.57.13-.27.14-.48.47-.21.34-.33.9-.13.57-.13 1.43 0 .87.13 1.43.12.57.33.91.21.33.48.47.27.13.57.13.29 0 .57-.13.27-.14.48-.47.22-.34.34-.91.13-.56.13-1.43m10.14 2.16-.72.71-1.87-1.87-1.88 1.88-.72-.71 1.88-1.89-1.79-1.79.71-.71 1.8 1.79 1.78-1.78.72.71-1.78 1.79zm4.57-3.79-.71-.13q.08-.57.32-1 .23-.43.59-.72.35-.29.81-.44.46-.14.99-.14.55 0 .99.16.44.15.76.43.31.28.48.65.17.38.17.81 0 .38-.09.67-.08.29-.24.5-.16.22-.4.36-.24.15-.53.25.71.23 1.06.69.36.46.36 1.16 0 .59-.22 1.05t-.6.77q-.37.31-.86.47-.5.16-1.05.16-.6 0-1.04-.14-.45-.14-.78-.41t-.56-.66-.39-.9l.6-.25q.23-.09.44-.05.2.05.3.22.1.2.22.38.11.19.28.34.16.14.39.23.22.09.53.09.34 0 .6-.11t.43-.29q.18-.18.26-.41.09-.22.09-.45 0-.28-.06-.52-.06-.23-.26-.39-.19-.17-.55-.26-.36-.1-.96-.1v-.96q.5-.01.83-.1t.52-.24q.2-.16.27-.38.08-.22.08-.48 0-.56-.31-.86-.32-.29-.84-.29-.24 0-.44.07-.21.07-.37.19-.16.13-.27.29-.11.17-.17.37-.09.25-.24.33t-.43.04m11.18 1.63q0 1.04-.22 1.81-.23.77-.62 1.27t-.93.74q-.54.25-1.16.25t-1.15-.25q-.53-.24-.92-.74t-.61-1.27-.22-1.81.22-1.81q.22-.76.61-1.26t.92-.75q.53-.24 1.15-.24t1.16.24q.54.25.93.75t.62 1.26q.22.77.22 1.81m-1.4 0q0-.86-.13-1.43-.13-.56-.34-.9-.21-.33-.49-.47-.27-.13-.57-.13-.29 0-.56.13-.27.14-.48.47-.21.34-.34.9-.12.57-.12 1.43 0 .87.12 1.43.13.57.34.91.21.33.48.47.27.13.56.13.3 0 .57-.13.28-.14.49-.47.21-.34.34-.91.13-.56.13-1.43"/></svg>